<svg xmlns="http://www.w3.org/2000/svg" xmlns:xlink="http://www.w3.org/1999/xlink" version="1.1" viewBox="441 0 618 117"><svg xml:space="preserve" width="1500" height="117" data-version="2" data-id="lg_AKcUXlVZAb7I1aroTk" viewBox="0 0 618 117" x="0" y="0"><rect width="100%" height="100%" fill="transparent"/><path d="m247.65 74.61-3.57 14.85h-17.02l20.98-68.61h19.7l20.99 68.61h-17.42l-3.57-14.85Zm17.42-11.69-7.42-30.39-7.43 30.39Z"/><rect width="61.67" height="68.61" x="-30.84" y="-34.3" fill="none" rx="0" ry="0" transform="translate(258.4 55.66)"/><path d="M330.21 35.3q4.76 0 8.72 1.59l-2.88 21.98h-9.9v-9.71q-4.35.8-7.72 4.76-3.36 3.96-5.24 9.99v15.05h10.39v10.5h-32.97v-10.5h6.93V47.28h-6.93V36.89h18.91l2.77 11.78q2.88-6.73 7.23-10.05 4.36-3.32 10.69-3.32"/><rect width="48.32" height="54.16" x="-24.16" y="-27.08" fill="none" rx="0" ry="0" transform="translate(315.27 62.88)"/><path d="M378.62 14.32q10.1 0 18.02 3.36l-4.35 10.2q-5.05-1.98-11.19-1.98-4.65 0-6.68 1.68-2.03 1.68-2.03 5.55v7.02h17.12l-1.78 10.89h-15.34v38.42h-15.55V51.04h-11.08V40.15h11.08v-7.52q0-8.12 5.7-13.22 5.69-5.09 16.08-5.09"/><rect width="50.88" height="75.14" x="-25.44" y="-37.57" fill="none" rx="0" ry="0" transform="translate(371.7 52.39)"/><path d="M444.46 74.31q0 2.87.79 4.26.79 1.38 2.67 2.08l-3.26 10.29q-4.75-.49-7.92-2.13-3.17-1.63-4.95-4.8-2.97 3.47-7.53 5.3-4.55 1.83-9.7 1.83-8.12 0-12.97-4.6-4.85-4.61-4.85-11.93 0-8.52 6.73-13.22 6.74-4.7 18.91-4.7h7.03v-1.88q0-8.12-10.39-8.12-2.68 0-6.69.74t-7.77 2.03L401 39.07q5.05-1.89 10.54-2.93 5.5-1.03 9.95-1.03 22.97 0 22.97 18.61zm-24.55 5.64q2.67 0 5.39-1.53 2.73-1.54 4.11-4.21V65.6h-3.86q-12.67 0-12.67 7.92 0 3.07 1.83 4.75 1.83 1.68 5.2 1.68"/><rect width="51.18" height="56.03" x="-25.59" y="-28.02" fill="none" rx="0" ry="0" transform="translate(422.83 63.63)"/><path d="M455.25 36.89h13.66l1.09 6.04q3.57-3.96 7.48-5.89 3.91-1.93 8.86-1.93 6.83 0 10.64 4.15 3.81 4.16 3.81 11.59v38.61h-15.64V55.4q0-4.95-1.09-6.83t-3.96-1.88q-2.38 0-4.6 1.53-2.23 1.54-4.61 4.51v36.73h-15.64Z"/><rect width="45.54" height="54.35" x="-22.77" y="-27.18" fill="none" rx="0" ry="0" transform="translate(478.52 62.78)"/><path d="m505.54 89.46 18.02-27.62-16.33-24.95h17.52l8.41 16.83 8.12-16.83h16.63l-15.44 24.35 18.12 28.22h-17.72l-10.4-19.7-10 19.7Z"/><rect width="55.05" height="52.57" x="-27.52" y="-26.29" fill="none" rx="0" ry="0" transform="translate(533.57 63.67)"/><path d="M565.34 36.89H579l1.09 6.04q3.56-3.96 7.47-5.89 3.91-1.93 8.86-1.93 6.84 0 10.65 4.15 3.81 4.16 3.81 11.59v38.61h-15.64V55.4q0-4.95-1.09-6.83t-3.96-1.88q-2.38 0-4.61 1.53-2.22 1.54-4.6 4.51v36.73h-15.64Z"/><rect width="45.54" height="54.35" x="-22.77" y="-27.18" fill="none" rx="0" ry="0" transform="translate(588.61 62.78)"/><rect width="174.28" height="100.71" x="-87.14" y="-50.36" rx="7" ry="7" transform="translate(105.8 58.5)scale(1.144)"/><path fill="#fff" d="M60.868 57.425 92.555 71.69v13.477l-61.879-27.86 61.879-27.131v13.358zm118.964.65L138.683 39.91l-4.98 11.132 16.372 7.152-25.118 11.093-7.502 15.408v1.241zM125.794 16.14l14.9 2.704-36.053 79.605-14.9-2.704z"/></svg></svg>